<svg xmlns="http://www.w3.org/2000/svg" width="180" height="49"><g fill="none" fill-rule="evenodd"><path fill="#AEB3AA" d="M63.55 45.8c0 .86-.52 1.38-1.43 1.38-.9 0-1.42-.56-1.42-1.37v-3.9h-1.14v4c0 1.5 1.06 2.3 2.53 2.3 1.6 0 2.5-.8 2.5-2.2v-4h-1.1v4zM71.4 48l-1.15-2.48h-1.32V48H67.8v-6.14h2.66c1.2 0 2.05.64 2.05 1.76 0 .84-.4 1.4-1.1 1.63L72.7 48h-1.3zm-2.47-5.22v1.83h1.5c.5 0 .93-.2.93-.9s-.42-.9-.92-.9h-1.5zm10.18 2.06v.02c.7.18 1.2.6 1.2 1.42 0 1.1-.9 1.72-2.1 1.72h-2.7v-6.14h2.7c1.3 0 2 .67 2 1.6 0 .73-.4 1.14-1 1.38zm-.9-2.07h-1.6v1.7h1.6c.5 0 .9-.27.9-.85s-.4-.85-.8-.85zm-1.6 4.33h1.7c.5 0 .9-.3.9-.9s-.4-.85-.8-.85h-1.7v1.73zm10.7.9l-.5-1.5h-2.6l-.5 1.5h-1.2l2.4-6.15h1.4L88.5 48h-1.2zm-2.7-2.43h1.9l-.9-2.64-.9 2.64zm10.7-3.72v4.3l-2.9-4.3h-1.3V48h1.2v-4.46l3 4.46h1.1v-6.14h-1.1zm11.2 2.83v.88h1.4v.17c0 .9-.6 1.43-1.5 1.43-1.2 0-1.8-.9-1.8-2.23 0-1.3.7-2.27 1.9-2.27.7 0 1.3.34 1.6.92l.9-.58c-.5-.78-1.3-1.25-2.4-1.25-1.9 0-3 1.4-3 3.2 0 1.74 1 3.12 2.8 3.12.9 0 1.5-.37 1.8-.83v.73h1v-3.3h-2.5zm9.8 3.3l-.5-1.5h-2.5l-.5 1.5h-1.1l2.3-6.14h1.4l2.3 6.14h-1.2zm-2.7-2.42h1.9l-1-2.64-.9 2.64zm10 2.44l-1.1-2.48h-1.3V48H120v-6.14h2.66c1.23 0 2.08.64 2.08 1.76 0 .84-.5 1.4-1.2 1.63L124.9 48h-1.24zm-2.4-5.22v1.83h1.5c.5 0 .9-.2.9-.9s-.4-.9-.9-.9h-1.5zm6.5 5.22v-6.14h2.2c2.2 0 3.1 1.4 3.1 3.06 0 1.8-1.1 3.08-3 3.08h-2.2zm1.2-.92h1c1.3 0 2-.7 2-2.14 0-1.5-.8-2.16-2-2.16h-1v4.3zm11.3.92v-.92h-3.02v-1.72h2.6v-.9h-2.6v-1.68h3v-.92H136V48h4.16zm6.98-6.14v4.3l-2.9-4.3H143V48h1.1v-4.46h.02l3 4.46h1.06v-6.14h-1.1zm12 6.14h1.3l-1.84-3.1 1.77-3.04h-1.25l-1.5 2.6h-1v-2.6h-1.2V48h1.1v-2.64h1L159 48zm5.15 0v-6.14h-1.13V48h1.13zm5.86 0v-5.22h2.03v-.92H167v.92h2V48h1.14zm6.74.1c1.54 0 2.4-.78 2.4-1.88 0-1.22-1-1.56-2.06-1.83-.9-.3-1.43-.4-1.43-.9s.37-.9 1.1-.9c.66 0 1.2.2 1.6.7l.65-.8c-.56-.6-1.3-.9-2.24-.9-1.4 0-2.2.7-2.2 1.8 0 1.2 1 1.5 2 1.8.9.2 1.5.3 1.5.9 0 .5-.3.8-1.2.8-.7 0-1.3-.3-1.7-.8l-.7.7c.6.6 1.4.9 2.5.9z"/><path fill="#498744" d="M178.8 29.83c.37.68.13 1.55-.55 1.94l-2.76 1.57a1.4 1.4 0 0 1-2-.54l-4.7-8.3h.1c.1 0 2.8-.2 5.6-2.14l4.2 7.47zm-4.3-8.97a10.23 10.23 0 0 1-.5.38c-2.5 1.8-5.04 2-5.07 2l-.68.04-.7.05-.68.04h-6.67v-6.03h6.74c.2 0 .58 0 1.04-.08.87-.12 2.05-.45 2.95-1.27l.12-.2c.84-.9 1.25-2 1.25-3.6s-.4-2.7-1.22-3.5c-1.04-1.1-1.45-1.2-1.67-1.2a46.65 46.65 0 0 0-4.1-.3h-5V2.7c0-.5-.1-1-.4-1.4h5.5c1.1 0 3 .04 4.1.08 0 0 3.1.17 6 3.1 2 1.95 3 4.64 3 7.77 0 4.02-1.6 6.5-3 7.86a11.3 11.3 0 0 1-.8.7zm-16.76-19.5c.68.1 1.2.68 1.2 1.4V32c0 .76-.64 1.4-1.42 1.4h-3.17c-.78 0-1.4-.64-1.4-1.4V2.73c0-.78.62-1.42 1.4-1.42h3.17c.08 0 .15 0 .22.1zm-12.28 26.08c.78 0 1.42.63 1.42 1.42v3.18a1.42 1.42 0 0 1-1.42 1.42h-13.8c.26-.4.42-.9.42-1.42v-4.6h13.38zm0-13.03c.78 0 1.42.7 1.42 1.5V19a1.42 1.42 0 0 1-1.42 1.43h-13.38V14.4h13.38zm0-13c.78 0 1.42.7 1.42 1.4V6c0 .77-.64 1.4-1.42 1.4h-13.38V2.8c0-.52-.15-1-.4-1.42h13.78zm-16.06 0c.78 0 1.4.7 1.4 1.4v29.3c0 .8-.62 1.5-1.4 1.5h-3.17a1.42 1.42 0 0 1-1.42-1.4V2.8c0-.78.7-1.42 1.5-1.42h3.2zm-21.66 16.1l11.44 11.6c.27.3.4.7.4 1 0 .4-.14.8-.4 1l-2.37 2.4a1.4 1.4 0 0 1-1 .4 1.4 1.4 0 0 1-1-.4l-11.7-11.9 4.7-4zm-.4-1.3l-.5.4-3.78 3.3v-8.2l11.9-10.3a1.4 1.4 0 0 1 2 .2l2.15 2.6a1.45 1.45 0 0 1-.1 2l-11.1 9.7-.4.5zm-6.97-14.6c.78 0 1.42.7 1.42 1.5v29.2c0 .8-.7 1.5-1.5 1.5h-3.1c-.8 0-1.4-.6-1.4-1.4V3.1c0-.8.6-1.4 1.4-1.4h3.1zM71.64 21.2h7.08l2.96 6.02h-13l2.96-6.03zm-1.1-.64l-.3.64-2.97 6.02-.3.62-.32.64-2.1 4.3a1.44 1.44 0 0 1-1.3.8c-.2 0-.42 0-.6-.1L59.8 32a1.4 1.4 0 0 1-.76-.8 1.4 1.4 0 0 1 .06-1.1l2.9-5.9.64-1.3 1.06-2.14.4-.83 7-14.22.37-.7.47-.9.4-.8.5-1h.02c.23-.4.72-.7 1.25-.7l.3.1c.1.1.3.1.4.2l.4.2 2.4 1c.2.07.3.17.4.28a1.4 1.4 0 0 1 .3 1.6l-3.1 6.27-.3.74-.34.7L70.9 20l-.3.62zm8.7-14.8l11.96 24.3c.17.34.2.72.07 1.08a1.4 1.4 0 0 1-.72.8l-2.85 1.4c-.2.1-.4.15-.62.15a1.44 1.44 0 0 1-1.28-.8l-2.2-4.5-.28-.6-.3-.6-2.9-6-.32-.7-.3-.7-3.63-7.4 3.33-6.8zM27.84 38.9a10.74 10.74 0 0 0 2.26-3.07 10 10 0 0 0 1-3.7c.08-1.34.03-1.57.03-1.57-.28-1.32-.56-2.57-.62-2.77 0-.2-.8-.1-1.6.2-.8.3-2.5 1-3.7 1.6 0 0-.2.1-1.1 1l-.7.7c-.6.9-1.1.6-1.1-.8V27c0-1.36 1-3.02 2.1-3.7l6.7-3.94A274.6 274.6 0 0 1 33.4 18c.15-.06.7-.4.9-.52.2-.13.4.9.4 2.23V39c0 1.37-.94 3-2.1 3.7l-8.3 4.85c-1.15.67-2.1.12-2.1-1.23V44.3c0-1.35.54-2.66 1.2-2.92.67-.25 2.2-.93 3.4-1.53 0 0 .2-.1 1.16-1zm12.8-25.1c1.16-.7 2.1-.15 2.1 1.2v19.3c0 1.36-.95 3.02-2.1 3.7l-2.56 1.5c-1.16.67-2.1.1-2.1-1.24l-.03-19.28c0-1.35.95-3 2.1-3.7l2.6-1.5zm-8.58 3.35a9.35 9.35 0 0 1-3.17.87 8.54 8.54 0 0 1-6.3-2l-1.4-1.12a9.08 9.08 0 0 1 2.2-1.53 8.27 8.27 0 0 1 3.1-.84 9.08 9.08 0 0 1 3.2.4 8.5 8.5 0 0 1 3 1.64l1.3 1.1a8 8 0 0 1-1.3 1l-.6.34-.4.2z"/><path fill="#7EB445" d="M20.67 46.27c0 1.35-.94 1.9-2.1 1.22L2.1 37.9C.95 37.2 0 35.55 0 34.2v-2.6c0-1.36.95-1.9 2.1-1.24l16.47 9.58c1.16.67 2.1 2.33 2.1 3.68v2.65zM5.87 17.4c-.12.7-.3 2.4-.4 3.74 0 0 0 .24.3 1.52a10.78 10.78 0 0 0 1.48 3.5 9.8 9.8 0 0 0 2.67 2.73c1.08.7 1.3.8 1.3.8 1.27.4 2.48.8 2.67.8.2 0 .4-.7.6-1.6.1-.9.3-2.8.4-4.1 0 0 0-.3-.3-1.5l-.3-1.1c-.5-1.1 0-1.4 1.1-.7l2.9 1.7c1.1.7 2.1 2.3 2.1 3.7v10c0 1.3-1 1.9-2.1 1.2L2 28.7C.93 28 0 26.4 0 25V15c0-1.34.95-1.9 2.1-1.22l1.88 1.1c1.15.67 2 1.8 1.88 2.5zm16.3 20.1a9.6 9.6 0 0 1 .85-3.2 8.7 8.7 0 0 1 1.93-2.65 8.57 8.57 0 0 1 2.88-1.8l1.65-.6c.2.9.27 1.8.2 2.68a8.52 8.52 0 0 1-.83 3.16 9.3 9.3 0 0 1-1.97 2.6A8.53 8.53 0 0 1 24 39.5l-1.62.6a7.95 7.95 0 0 1-.2-2.63z"/><path fill="#AFCA47" d="M13.3 23.67a8.73 8.73 0 0 1 .1 3.4l-.28 1.76a9.07 9.07 0 0 1-2.4-1.16 8.38 8.38 0 0 1-2.3-2.32 9.32 9.32 0 0 1-1.3-3.04 8.7 8.7 0 0 1-.08-3.4l.28-1.7c.87.3 1.66.7 2.37 1.2a9.48 9.48 0 0 1 2.3 2.3 8.72 8.72 0 0 1 1.3 3zm21.44-9.5c-.53-.44-1.86-1.42-2.97-2.17 0 0-.2-.14-1.45-.52a10.6 10.6 0 0 0-3.75-.46 9.7 9.7 0 0 0-3.66 1c-1.1.56-1.3.72-1.3.72-1 .9-1.9 1.76-2 1.9-.1.17.3.76 1 1.34.7.58 2.2 1.67 3.3 2.42 0 0 .2.14 1.5.52l1 .3c1.1.08 1.1.7-.1 1.38l-2.6 1.52c-1.1.67-3 .68-4.2 0l-8.5-4.9c-1.1-.68-1.1-1.78 0-2.46l16.5-9.6c1.2-.67 3.1-.67 4.2 0l8.4 4.9c1.2.67 1.2 1.78 0 2.45L38 13.8c-1.17.7-2.54.9-3.07.5zM2.8 12.53c-1.15-.67-1.15-1.78 0-2.45L19.27.5c1.16-.67 3.05-.67 4.2 0l2.4 1.4c1.16.67 1.16 1.78 0 2.45l-16.44 9.6c-1.15.67-3.04.67-4.2 0l-2.4-1.4z"/></g></svg>
