<svg xmlns="http://www.w3.org/2000/svg" width="121" height="86"><g fill="none" fill-rule="evenodd"><path fill="#AEB3AA" d="M4.55 82.8c0 .86-.52 1.38-1.43 1.38-.9 0-1.42-.56-1.42-1.37v-3.9H.56v4c0 1.5 1.06 2.3 2.53 2.3 1.6 0 2.5-.8 2.5-2.2v-4H4.5v4zM12.4 85l-1.15-2.48H9.93V85H8.8v-6.14h2.66c1.2 0 2.05.64 2.05 1.76 0 .84-.4 1.4-1.1 1.63L13.7 85h-1.3zm-2.47-5.22v1.83h1.5c.5 0 .93-.2.93-.9s-.42-.9-.92-.9h-1.5zm10.18 2.06v.02c.7.18 1.2.6 1.2 1.42 0 1.1-.9 1.72-2.1 1.72h-2.7v-6.14h2.7c1.3 0 2 .67 2 1.6 0 .73-.4 1.14-1 1.38zm-.9-2.07h-1.6v1.7h1.6c.5 0 .9-.27.9-.85s-.4-.85-.8-.85zm-1.6 4.33h1.7c.5 0 .9-.3.9-.9s-.4-.85-.8-.85h-1.7v1.73zm10.7.9l-.5-1.5h-2.6l-.5 1.5h-1.2l2.4-6.15h1.4L29.5 85h-1.2zm-2.7-2.43h1.9l-.9-2.64-.9 2.64zm10.7-3.72v4.3l-2.9-4.3h-1.3V85h1.2v-4.46l3 4.46h1.1v-6.14h-1.1zm11.2 2.83v.88h1.4v.17c0 .9-.6 1.43-1.5 1.43-1.2 0-1.8-.9-1.8-2.23 0-1.3.7-2.27 1.9-2.27.7 0 1.3.34 1.6.92L50 80c-.53-.78-1.37-1.25-2.47-1.25-1.9 0-3 1.4-3 3.2 0 1.74 1 3.12 2.8 3.12.88 0 1.45-.37 1.76-.83v.73h1v-3.3h-2.5zm9.8 3.3l-.5-1.5h-2.6l-.5 1.5h-1.2l2.3-6.14h1.4l2.3 6.14h-1.2zm-2.7-2.42h1.9l-1-2.64-.9 2.64zm10 2.44l-1.1-2.48h-1.4V85H61v-6.14h2.66c1.23 0 2.08.64 2.08 1.76 0 .84-.5 1.4-1.2 1.63L65.92 85h-1.24zm-2.4-5.22v1.83h1.5c.5 0 .9-.2.9-.9s-.4-.9-.9-.9h-1.6zM68.7 85v-6.14h2.2c2.14 0 3.1 1.4 3.1 3.06 0 1.8-1.1 3.08-3.05 3.08H68.7zm1.15-.92h1c1.24 0 2-.7 2-2.14 0-1.5-.84-2.16-2.06-2.16h-1v4.3zM81.1 85v-.92h-3.04v-1.72h2.6v-.9h-2.6v-1.68h3v-.92h-4.13V85h4.17zm6.96-6.14v4.3l-2.88-4.3h-1.23V85h1.1v-4.46h.02L88.1 85h1.07v-6.14h-1.1zM100.12 85h1.3l-1.85-3.1 1.77-3.04h-1.25l-1.5 2.6h-1v-2.6h-1.2V85h1.1v-2.64h1L100 85zm5.14 0v-6.14h-1.13V85h1.13zm5.86 0v-5.22h2.03v-.92h-5.2v.92h2.03V85h1.14zm6.74.1c1.54 0 2.4-.78 2.4-1.88 0-1.22-.98-1.56-2.06-1.83-.9-.3-1.42-.4-1.42-.9s.37-.9 1.12-.9c.65 0 1.2.2 1.6.7l.64-.8c-.55-.6-1.28-.9-2.23-.9-1.4 0-2.2.7-2.2 1.8 0 1.2 1 1.5 2 1.8.9.2 1.5.3 1.5.9 0 .5-.3.8-1.2.8-.7 0-1.3-.27-1.7-.74l-.7.73c.6.6 1.4.9 2.5.9z"/><path fill="#FFF" d="M103.24 65c.27.5.1 1.14-.38 1.42l-1.96 1.14a.97.97 0 0 1-.5.13 1 1 0 0 1-.86-.6l-3.3-6h.06c.1 0 2.02-.2 3.98-1.6l2.96 5.4zm-3.05-6.5l-.4.28c-1.8 1.3-3.6 1.45-3.6 1.45l-.5.03a228.36 228.36 0 0 0-1 .06H90v-4.38h4.8c.15 0 .4 0 .74-.06.62-.1 1.45-.33 2.1-.92l.08-.1c.6-.6.88-1.44.88-2.58 0-1.12-.26-1.95-.84-2.54-.74-.75-1.03-.86-1.2-.88-.8-.1-2.12-.16-2.93-.16h-3.6v-3.36c0-.38-.1-.72-.27-1.02h3.85c.8 0 2.1.03 2.9.06.1 0 2.2.12 4.3 2.25 1.4 1.42 2.1 3.37 2.1 5.65 0 2.92-1.2 4.7-2.1 5.7a6.73 6.73 0 0 1-.5.5zM88.3 44.3c.48.08.85.5.85 1.02v21.24c0 .57-.45 1.03-1 1.03H85.9c-.55 0-1-.5-1-1.1V45.3c0-.57.45-1.04 1-1.04h2.4zm-8.7 18.96c.54 0 1 .46 1 1.03v2.3c0 .5-.46 1-1 1h-9.8c.18-.3.3-.7.3-1.1v-3.3h9.5zm0-9.47c.54 0 1 .4 1 1v2.3c0 .5-.46 1-1 1h-9.5v-4.4h9.5zm0-9.5c.54 0 1 .4 1 1v2.3c0 .6-.46 1-1 1h-9.5v-3.3c0-.4-.12-.8-.3-1.1h9.8zm-11.4 0c.54 0 1 .4 1 1v21.3c0 .5-.46 1-1 1h-2.26c-.55 0-1-.5-1-1.1V45.4c0-.57.45-1.04 1-1.04h2.25zM52.8 56l8.12 8.43c.2.2.3.45.3.72a1.04 1.04 0 0 1-.3.75l-1.7 1.7a.98.98 0 0 1-.7.3.98.98 0 0 1-.7-.3L49.5 59l3.3-2.95zm-.3-.97l-.33.3-2.7 2.4v-6l8.45-7.5a.98.98 0 0 1 1.4.1l1.53 1.86c.36.4.3 1.1-.1 1.4l-7.9 7-.35.3zm-4.9-10.6c.55 0 1 .46 1 1.03V66.7c0 .57-.45 1.04-1 1.04h-2.25c-.55 0-1-.4-1-1v-21.2c0-.58.45-1.04 1-1.04h2.25zm-20.4 14.2h5.03l2.1 4.38H25.1l2.1-4.3zm-.77-.46l-.23.46L24.1 63l-.22.47-.22.48-1.5 3.12a1.02 1.02 0 0 1-.9.56.97.97 0 0 1-.45-.1l-2-1a1.04 1.04 0 0 1-.4-1.4l2.1-4.26.5-.9.8-1.54.3-.6L27 47.5l.26-.53.36-.7.3-.6.37-.75v-.02c.1-.33.5-.55.9-.55 0 0 .1 0 .1.02a.97.97 0 0 1 .24.1l.3.13 1.7.85c.1.05.2.12.27.2a1.02 1.02 0 0 1 .3.6c.04.2 0 .4-.1.57l-2.2 4.57-.2.5-.3.5-2.55 5.3-.2.4zm6.16-10.75l8.5 17.7a1.05 1.05 0 0 1-.5 1.4l-2 1a.96.96 0 0 1-.5.1c-.4 0-.8-.22-.9-.57l-1.6-3.28-.2-.42-.2-.4-2.1-4.33-.2-.46-.3-.45-2.6-5.3 2.4-4.9z"/><path fill="#498744" d="M65 28.4c.66-.65 1.2-1.4 1.6-2.23.4-.84.64-1.74.7-2.7.07-.95.03-1.12.03-1.12a56.7 56.7 0 0 0-.43-2c-.05-.15-.57-.08-1.17.15-.6.24-1.8.78-2.64 1.2 0 0-.2.1-.9.74l-.6.53c-.5.7-.8.45-.8-.53v-2.58c0-.98.6-2.2 1.5-2.68L67 14.3c.82-.5 1.6-.9 1.7-1l.64-.4c.13 0 .25.7.25 1.7v14c0 1-.7 2.2-1.5 2.7l-5.9 3.5c-.9.5-1.5.1-1.5-.9v-1.5c0-.9.4-1.9.8-2.1.5-.2 1.6-.7 2.4-1.1 0 0 .2-.1.83-.7zm9.08-18.25c.82-.5 1.5-.1 1.5.9v14.02c0 .98-.68 2.2-1.5 2.68l-1.82 1.1c-.82.48-1.5.08-1.5-.9V13.92c0-.98.67-2.2 1.5-2.68l1.82-1.1zm-6.1 2.45a6.5 6.5 0 0 1-2.23.62 5.92 5.92 0 0 1-2.3-.26 6.05 6.05 0 0 1-2.1-1.2l-.97-.8a6.45 6.45 0 0 1 1.56-1.13 5.76 5.76 0 0 1 2.22-.6 6.3 6.3 0 0 1 2.32.28 6 6 0 0 1 2.1 1.2l.95.8a5.7 5.7 0 0 1-.9.8l-.4.3c-.07.1-.15.1-.24.2z"/><path fill="#7EB445" d="M59.9 33.8c0 .97-.66 1.37-1.48.88L46.74 27.7c-.83-.5-1.5-1.7-1.5-2.67v-1.9c0-1 .67-1.4 1.5-.9l11.68 6.96c.82.4 1.5 1.6 1.5 2.6v1.9zm-10.5-21c-.08.53-.2 1.75-.27 2.73 0 0 0 .17.2 1.1a7.93 7.93 0 0 0 1.06 2.56 7.05 7.05 0 0 0 1.8 1.9l.9.6c.9.3 1.7.5 1.9.6.1 0 .3-.5.4-1.2.1-.7.2-2 .3-3 0 0 0-.2-.2-1.1l-.2-.8c-.4-.8 0-1 .8-.5l2.1 1.2c.8.5 1.5 1.7 1.5 2.64V27c0 1-.7 1.4-1.5.9l-11.7-7c-.85-.5-1.5-1.7-1.5-2.65V11c0-.96.65-1.36 1.5-.87l1.3.78c.82.5 1.43 1.3 1.34 1.9zm11.58 14.62c.07-.82.28-1.6.6-2.32a6.3 6.3 0 0 1 1.37-1.93 6.07 6.07 0 0 1 2.05-1.3l1.16-.45c.15.65.2 1.3.15 1.95a6.3 6.3 0 0 1-.5 2.3 6.75 6.75 0 0 1-1.4 1.93 6.03 6.03 0 0 1-2 1.3l-1.1.44a5.9 5.9 0 0 1-.1-1.92z"/><path fill="#AFCA47" d="M54.7 17.37c.17.8.2 1.63.06 2.48l-.2 1.27a6.37 6.37 0 0 1-1.72-.84 6.03 6.03 0 0 1-1.63-1.7 6.86 6.86 0 0 1-.9-2.2 6.46 6.46 0 0 1 0-2.47l.2-1.2c.6.2 1.2.5 1.7.9a6.82 6.82 0 0 1 1.7 1.7c.5.7.8 1.4 1 2.2zm15.2-6.9c-.38-.33-1.32-1.03-2.1-1.58 0 0-.15-.1-1.04-.4a7.36 7.36 0 0 0-2.66-.4 6.76 6.76 0 0 0-2.6.7c-.83.4-.95.5-.95.5a53.94 53.94 0 0 0-1.46 1.4c-.1.1.2.5.7.9.5.4 1.5 1.2 2.3 1.7 0 0 .1.1 1 .4l.7.2c.7 0 .7.5-.1 1L61.8 16c-.9.5-2.2.5-3 0l-6-3.6c-.9-.5-.9-1.3 0-1.76l11.8-6.8c.8-.5 2.1-.5 2.9 0l5.95 3.54c.82.5.82 1.3 0 1.8l-1.47.9c-.8.46-1.8.6-2.17.3zm-22.67-1.2c-.82-.48-.82-1.28 0-1.77L58.93.54c.8-.5 2.16-.5 2.98 0l1.7 1c.9.5.9 1.3 0 1.8L52 10.3c-.82.5-2.16.5-2.98 0L47.3 9.28z"/></g></svg>
