<svg width="19" height="16" viewBox="0 0 19 16" xmlns="http://www.w3.org/2000/svg"><title>6AE8AAA3-2072-4E08-9303-EC3ABF3F929D</title><path d="M18.192 2.471a7.205 7.205 0 0 1-2.16.597 3.701 3.701 0 0 0 1.654-2.067 8.325 8.325 0 0 1-2.39.919A3.742 3.742 0 0 0 12.54.725a3.785 3.785 0 0 0-3.768 3.768c0 .276.046.597.092.873A10.557 10.557 0 0 1 1.1 1.414a3.725 3.725 0 0 0-.505 1.884c0 1.287.643 2.481 1.7 3.125-.598 0-1.195-.184-1.7-.46v.046a3.708 3.708 0 0 0 3.032 3.676 3.583 3.583 0 0 1-1.01.138c-.23 0-.46-.046-.69-.046.46 1.516 1.884 2.573 3.538 2.619a7.512 7.512 0 0 1-4.687 1.608c-.321 0-.597 0-.919-.046a10.706 10.706 0 0 0 5.79 1.7c6.938 0 10.706-5.743 10.706-10.706v-.505a9.393 9.393 0 0 0 1.838-1.976z" fill-rule="nonzero" fill="#AEB3AA"/></svg>