<svg width="20" height="20" viewBox="0 0 20 20" xmlns="http://www.w3.org/2000/svg"><title>B6C3DB85-211E-456E-8EEA-2FA21F831B45</title><g fill-rule="nonzero" fill="#AEB3AA"><path d="M17.608 2.24c-.962-.985-2.383-1.407-3.941-1.407H6.15C2.942.833.833 2.71.833 5.944v7.55c0 1.593.504 3.094 1.559 4.078 1.008.938 2.291 1.595 3.804 1.595h7.47c1.559 0 2.98-.657 3.942-1.595 1.009-.937 1.559-2.438 1.559-4.032V5.944c0-1.547-.596-2.766-1.559-3.704zm-.275 11.488c0 .937-.32 2.016-1.008 2.625-.688.61-1.558.891-2.658.891H6.196c-1.1 0-1.925-.375-2.613-.984-.641-.657-.916-1.642-.916-2.767V5.944c0-1.125.275-1.828.916-2.485.642-.61 1.513-.75 2.613-.75h7.562c1.1 0 1.971.14 2.659.797.641.656.962 1.36.962 2.438v7.784h-.046z"/><path d="M9.908 4.867c-2.566 0-4.675 2.062-4.675 4.583 0 2.567 2.109 4.583 4.675 4.583 2.613 0 4.675-2.062 4.675-4.583.046-2.475-2.108-4.583-4.675-4.583zm0 7.562c-1.65 0-3.025-1.329-3.025-2.933 0-1.604 1.375-2.934 3.025-2.934s3.025 1.33 3.025 2.934-1.375 2.933-3.025 2.933z"/><ellipse cx="14.813" cy="4.775" rx="1.054" ry="1.054"/></g></svg>